<svg xmlns="http://www.w3.org/2000/svg" width="800" height="800"><rect width="800" height="800" x="0" y="0" fill="#FFFFFF" id="background"/><g transform="translate(20,20)" id="viz"><g id="nodes"><g transform="translate(381,381)"><path id="p_1142" d="M-6.980486755139912e-14,380A380,380,0,1,1,6.980486755139912e-14,-380A380,380,0,1,1,-6.980486755139912e-14,380Z" fill="none" stroke="#ccc"/><text fill="black" text-anchor="middle" font-family="'Arial', sans-serif" font-size="8" dominant-baseline="middle"><textPath href="#p_1142" startOffset="50%"/></text></g><g transform="translate(207.71039691416726,359.93028111906074)" id="google"><path id="p_738.3794681425773" d="M-3.1364206919655935e-14,170.7387901093492A170.7387901093492,170.7387901093492,0,1,1,3.1364206919655935e-14,-170.7387901093492A170.7387901093492,170.7387901093492,0,1,1,-3.1364206919655935e-14,170.7387901093492Z" fill="none" stroke="#ccc"/><text fill="black" text-anchor="middle" font-family="'Arial', sans-serif" font-size="8" dominant-baseline="middle"><textPath href="#p_738.3794681425773" startOffset="50%">google</textPath></text></g><g transform="translate(544.8914103888081,359.93028111906074)" id="miro"><path id="p_1070.2859907049224" d="M-3.039529865772474e-14,165.46429919705358A165.46429919705358,165.46429919705358,0,1,1,3.039529865772474e-14,-165.46429919705358A165.46429919705358,165.46429919705358,0,1,1,-3.039529865772474e-14,165.46429919705358Z" fill="none" stroke="#ccc"/><text fill="black" text-anchor="middle" font-family="'Arial', sans-serif" font-size="8" dominant-baseline="middle"><textPath href="#p_1070.2859907049224" startOffset="50%">miro</textPath></text></g><g transform="translate(381.1434569524742,619.5328517659264)" id="zoom"><path id="p_1141.1654896457435" d="M-2.5807443860625566e-14,140.48918092734283A140.48918092734283,140.48918092734283,0,1,1,2.5807443860625566e-14,-140.48918092734283A140.48918092734283,140.48918092734283,0,1,1,-2.5807443860625566e-14,140.48918092734283Z" fill="none" stroke="#ccc"/><text fill="black" text-anchor="middle" font-family="'Arial', sans-serif" font-size="8" dominant-baseline="middle"><textPath href="#p_1141.1654896457435" startOffset="50%">zoom</textPath></text></g><g transform="translate(380.8450711834828,123.3923219669278)" id="notion"><path id="p_625.6517443609391" d="M-2.2303454487078954e-14,121.41435121052857A121.41435121052857,121.41435121052857,0,1,1,2.2303454487078954e-14,-121.41435121052857A121.41435121052857,121.41435121052857,0,1,1,-2.2303454487078954e-14,121.41435121052857Z" fill="none" stroke="#ccc"/><text fill="black" text-anchor="middle" font-family="'Arial', sans-serif" font-size="8" dominant-baseline="middle"><textPath href="#p_625.6517443609391" startOffset="50%">notion</textPath></text></g><g transform="translate(195.49403293289103,125.56029403039508)" id="oreilly"><path id="p_384.0257683239081" d="M-1.1567666114997134e-14,62.97144136062194A62.97144136062194,62.97144136062194,0,1,1,1.1567666114997134e-14,-62.97144136062194A62.97144136062194,62.97144136062194,0,1,1,-1.1567666114997134e-14,62.97144136062194Z" fill="none" stroke="#ccc"/><text fill="black" text-anchor="middle" font-family="'Arial', sans-serif" font-size="8" dominant-baseline="middle"><textPath href="#p_384.0257683239081" startOffset="50%">oreilly</textPath></text></g><g transform="translate(151.61995151528623,369.4242656315429)" id="model"><path id="p_588.3329055983709" d="M-1.2360731539650596e-14,67.28868845154167A67.28868845154167,67.28868845154167,0,1,1,1.2360731539650596e-14,-67.28868845154167A67.28868845154167,67.28868845154167,0,1,1,-1.2360731539650596e-14,67.28868845154167Z" fill="#35acff" stroke="none"/></g><g transform="translate(278.8042057067714,369.4242656315429)" id="risk"><path id="p_707.1461129100197" d="M-1.0822995174615018e-14,58.91764157170546A58.91764157170546,58.91764157170546,0,1,1,1.0822995174615018e-14,-58.91764157170546A58.91764157170546,58.91764157170546,0,1,1,-1.0822995174615018e-14,58.91764157170546Z" fill="#35acff" stroke="none"/></g><g transform="translate(222.53522990636017,460.5254897610713)" id="safety"><path id="p_730.2428391636091" d="M-8.667214742697269e-15,47.18211949617758A47.18211949617758,47.18211949617758,0,1,1,8.667214742697269e-15,-47.18211949617758A47.18211949617758,47.18211949617758,0,1,1,-8.667214742697269e-15,47.18211949617758Z" fill="#35acff" stroke="none"/></g><g transform="translate(221.8555518742532,291.20901236803536)" id="research"><path id="p_549.9200967721353" d="M-6.770251491532194e-15,36.85553252984674A36.85553252984674,36.85553252984674,0,1,1,6.770251491532194e-15,-36.85553252984674A36.85553252984674,36.85553252984674,0,1,1,-6.770251491532194e-15,36.85553252984674Z" fill="#35acff" stroke="none"/></g><g transform="translate(153.63523831912522,266.4296382931974)" id="evaluation"><path id="p_454.812605913784" d="M-6.383054320001004e-15,34.74772930146137A34.74772930146137,34.74772930146137,0,1,1,6.383054320001004e-15,-34.74772930146137A34.74772930146137,34.74772930146137,0,1,1,-6.383054320001004e-15,34.74772930146137Z" fill="#35acff" stroke="none"/></g><g transform="translate(140.401195492385,471.82589723360775)" id="approach"><path id="p_646.9748220274541" d="M-6.383054320001004e-15,34.74772930146137A34.74772930146137,34.74772930146137,0,1,1,6.383054320001004e-15,-34.74772930146137A34.74772930146137,34.74772930146137,0,1,1,-6.383054320001004e-15,34.74772930146137Z" fill="#35acff" stroke="none"/></g><g transform="translate(291.866124458706,276.80082888407696)" id="content"><path id="p_602.3112975685539" d="M-6.180365769825298e-15,33.64434422577084A33.64434422577084,33.64434422577084,0,1,1,6.180365769825298e-15,-33.64434422577084A33.64434422577084,33.64434422577084,0,1,1,-6.180365769825298e-15,33.64434422577084Z" fill="#35acff" stroke="none"/></g><g transform="translate(303.1746421749528,458.5515549664398)" id="responsible"><path id="p_794.2297216450012" d="M-5.970800586652768e-15,32.50352450360857A32.50352450360857,32.50352450360857,0,1,1,5.970800586652768e-15,-32.50352450360857A32.50352450360857,32.50352450360857,0,1,1,-5.970800586652768e-15,32.50352450360857Z" fill="#35acff" stroke="none"/></g><g transform="translate(89.605295641876,289.99629201538545)" id="framework"><path id="p_412.10511216087" d="M-5.970800586652768e-15,32.50352450360857A32.50352450360857,32.50352450360857,0,1,1,5.970800586652768e-15,-32.50352450360857A32.50352450360857,32.50352450360857,0,1,1,-5.970800586652768e-15,32.50352450360857Z" fill="#35acff" stroke="none"/></g><g transform="translate(205.99467308667465,222.68366341851805)" id="security"><path id="p_461.18186100880126" d="M-5.970800586652768e-15,32.50352450360857A32.50352450360857,32.50352450360857,0,1,1,5.970800586652768e-15,-32.50352450360857A32.50352450360857,32.50352450360857,0,1,1,-5.970800586652768e-15,32.50352450360857Z" fill="#35acff" stroke="none"/></g><g transform="translate(499.1660613508268,359.0169741244927)" id="security"><path id="p_922.0186903570216" d="M-1.1726419563352733e-14,63.83565488170208A63.83565488170208,63.83565488170208,0,1,1,1.1726419563352733e-14,-63.83565488170208A63.83565488170208,63.83565488170208,0,1,1,-1.1726419563352733e-14,63.83565488170208Z" fill="#ffc30e" stroke="none"/></g><g transform="translate(623.2166211221431,359.0169741244927)" id="data"><path id="p_1041.4705759680119" d="M-1.0881656824738023e-14,59.23698072137619A59.23698072137619,59.23698072137619,0,1,1,1.0881656824738023e-14,-59.23698072137619A59.23698072137619,59.23698072137619,0,1,1,-1.0881656824738023e-14,59.23698072137619Z" fill="#ffc30e" stroke="none"/></g><g transform="translate(565.0363411531985,442.0904466374796)" id="compliance"><path id="p_1048.332525832524" d="M-7.569371279917666e-15,41.20573804184606A41.20573804184606,41.20573804184606,0,1,1,7.569371279917666e-15,-41.20573804184606A41.20573804184606,41.20573804184606,0,1,1,-7.569371279917666e-15,41.20573804184606Z" fill="#ffc30e" stroke="none"/></g><g transform="translate(564.9125138224401,280.1475308940965)" id="access"><path id="p_882.9255048521809" d="M-6.955772183003776e-15,37.86546013564431A37.86546013564431,37.86546013564431,0,1,1,6.955772183003776e-15,-37.86546013564431A37.86546013564431,37.86546013564431,0,1,1,-6.955772183003776e-15,37.86546013564431Z" fill="#ffc30e" stroke="none"/></g><g transform="translate(494.6722001705226,260.10494027122496)" id="user"><path id="p_788.9776272072148" d="M-6.282527496991625e-15,34.20048676546721A34.20048676546721,34.20048676546721,0,1,1,6.282527496991625e-15,-34.20048676546721A34.20048676546721,34.20048676546721,0,1,1,-6.282527496991625e-15,34.20048676546721Z" fill="#ffc30e" stroke="none"/></g><g transform="translate(490.7109480873617,457.11118249312057)" id="management"><path id="p_981.4664748062531" d="M-6.180365769825298e-15,33.64434422577084A33.64434422577084,33.64434422577084,0,1,1,6.180365769825298e-15,-33.64434422577084A33.64434422577084,33.64434422577084,0,1,1,-6.180365769825298e-15,33.64434422577084Z" fill="#ffc30e" stroke="none"/></g><g transform="translate(636.0130235668759,266.0341223238711)" id="policy"><path id="p_935.6914901165178" d="M-6.180365769825298e-15,33.64434422577084A33.64434422577084,33.64434422577084,0,1,1,6.180365769825298e-15,-33.64434422577084A33.64434422577084,33.64434422577084,0,1,1,-6.180365769825298e-15,33.64434422577084Z" fill="#ffc30e" stroke="none"/></g><g transform="translate(639.7900846066728,450.82680763776216)" id="control"><path id="p_1123.6957450324235" d="M-6.076486677941509e-15,33.078852787988595A33.078852787988595,33.078852787988595,0,1,1,6.076486677941509e-15,-33.078852787988595A33.078852787988595,33.078852787988595,0,1,1,-6.076486677941509e-15,33.078852787988595Z" fill="#ffc30e" stroke="none"/></g><g transform="translate(433.6017574677779,287.89533847107214)" id="key"><path id="p_753.414923379701" d="M-5.863209781676367e-15,31.91782744085104A31.91782744085104,31.91782744085104,0,1,1,5.863209781676367e-15,-31.91782744085104A31.91782744085104,31.91782744085104,0,1,1,-5.863209781676367e-15,31.91782744085104Z" fill="#ffc30e" stroke="none"/></g><g transform="translate(433.2652509575095,427.3121506939717)" id="enterprise"><path id="p_890.6698179503718" d="M-5.527887194856874e-15,30.09241629889045A30.09241629889045,30.09241629889045,0,1,1,5.527887194856874e-15,-30.09241629889045A30.09241629889045,30.09241629889045,0,1,1,-5.527887194856874e-15,30.09241629889045Z" fill="#ffc30e" stroke="none"/></g><g transform="translate(346.3907485278331,618.378793158388)" id="companion"><path id="p_1017.6100881381898" d="M-9.706650911640071e-15,52.840546451968684A52.840546451968684,52.840546451968684,0,1,1,9.706650911640071e-15,-52.840546451968684A52.840546451968684,52.840546451968684,0,1,1,-9.706650911640071e-15,52.840546451968684Z" fill="#3b6ef9" stroke="none"/></g><g transform="translate(434.4097059135071,618.378793158388)" id="thirdparty"><path id="p_1086.9889858373624" d="M-6.282527496991625e-15,34.20048676546721A34.20048676546721,34.20048676546721,0,1,1,6.282527496991625e-15,-34.20048676546721A34.20048676546721,34.20048676546721,0,1,1,-6.282527496991625e-15,34.20048676546721Z" fill="#3b6ef9" stroke="none"/></g><g transform="translate(406.94877789411123,681.4855999232273)" id="feature"><path id="p_1122.078722043109" d="M-6.180365769825298e-15,33.64434422577084A33.64434422577084,33.64434422577084,0,1,1,6.180365769825298e-15,-33.64434422577084A33.64434422577084,33.64434422577084,0,1,1,-6.180365769825298e-15,33.64434422577084Z" fill="#3b6ef9" stroke="none"/></g><g transform="translate(406.94877789411123,555.2719863935488)" id="customer"><path id="p_995.8651085134309" d="M-6.180365769825298e-15,33.64434422577084A33.64434422577084,33.64434422577084,0,1,1,6.180365769825298e-15,-33.64434422577084A33.64434422577084,33.64434422577084,0,1,1,-6.180365769825298e-15,33.64434422577084Z" fill="#3b6ef9" stroke="none"/></g><g transform="translate(343.5479571000458,531.5279822674896)" id="meeting"><path id="p_908.154792155524" d="M-6.076486677941509e-15,33.078852787988595A33.078852787988595,33.078852787988595,0,1,1,6.076486677941509e-15,-33.078852787988595A33.078852787988595,33.078852787988595,0,1,1,-6.076486677941509e-15,33.078852787988595Z" fill="#3b6ef9" stroke="none"/></g><g transform="translate(343.9525477049933,704.6663474110351)" id="security"><path id="p_1081.122419619637" d="M-5.970800586652768e-15,32.50352450360857A32.50352450360857,32.50352450360857,0,1,1,5.970800586652768e-15,-32.50352450360857A32.50352450360857,32.50352450360857,0,1,1,-5.970800586652768e-15,32.50352450360857Z" fill="#3b6ef9" stroke="none"/></g><g transform="translate(472.98100565648605,563.4774266894871)" id="data"><path id="p_1068.376259786824" d="M-5.863209781676367e-15,31.91782744085104A31.91782744085104,31.91782744085104,0,1,1,5.863209781676367e-15,-31.91782744085104A31.91782744085104,31.91782744085104,0,1,1,-5.863209781676367e-15,31.91782744085104Z" fill="#3b6ef9" stroke="none"/></g><g transform="translate(472.34366776751244,672.9975639474912)" id="user"><path id="p_1176.662411640594" d="M-5.753607411208886e-15,31.321179925590364A31.321179925590364,31.321179925590364,0,1,1,5.753607411208886e-15,-31.321179925590364A31.321179925590364,31.321179925590364,0,1,1,-5.753607411208886e-15,31.321179925590364Z" fill="#3b6ef9" stroke="none"/></g><g transform="translate(287.3603814362487,677.1199458961624)" id="model"><path id="p_993.9391481182639" d="M-5.411497587307509e-15,29.45882078585273A29.45882078585273,29.45882078585273,0,1,1,5.411497587307509e-15,-29.45882078585273A29.45882078585273,29.45882078585273,0,1,1,-5.411497587307509e-15,29.45882078585273Z" fill="#3b6ef9" stroke="none"/></g><g transform="translate(287.6382796400885,560.2769379128354)" id="content"><path id="p_876.7265126553702" d="M-5.292549048975114e-15,28.811295102446373A28.811295102446373,28.811295102446373,0,1,1,5.292549048975114e-15,-28.811295102446373A28.811295102446373,28.811295102446373,0,1,1,-5.292549048975114e-15,28.811295102446373Z" fill="#3b6ef9" stroke="none"/></g><g transform="translate(350.3013251928625,121.34148193191625)" id="data"><path id="p_514.6409284096" d="M-7.898626740120894e-15,42.9981212848212A42.9981212848212,42.9981212848212,0,1,1,7.898626740120894e-15,-42.9981212848212A42.9981212848212,42.9981212848212,0,1,1,-7.898626740120894e-15,42.9981212848212Z" fill="#adadad" stroke="none"/></g><g transform="translate(432.14283078156615,121.34148193191625)" id="customer"><path id="p_591.3497728491267" d="M-6.955772183003776e-15,37.86546013564431A37.86546013564431,37.86546013564431,0,1,1,6.955772183003776e-15,-37.86546013564431A37.86546013564431,37.86546013564431,0,1,1,-6.955772183003776e-15,37.86546013564431Z" fill="#adadad" stroke="none"/></g><g transform="translate(395.9982652304864,185.44469856570396)" id="model"><path id="p_616.1906930976518" d="M-6.383054320001004e-15,34.74772930146137A34.74772930146137,34.74772930146137,0,1,1,6.383054320001004e-15,-34.74772930146137A34.74772930146137,34.74772930146137,0,1,1,-6.383054320001004e-15,34.74772930146137Z" fill="#adadad" stroke="none"/></g><g transform="translate(395.7063089179323,62.82204516748562)" id="workspace"><path id="p_488.62077038430834" d="M-5.527887194856874e-15,30.09241629889045A30.09241629889045,30.09241629889045,0,1,1,5.527887194856874e-15,-30.09241629889045A30.09241629889045,30.09241629889045,0,1,1,-5.527887194856874e-15,30.09241629889045Z" fill="#adadad" stroke="none"/></g><g transform="translate(338.3935100665982,50.89425589045695)" id="user"><path id="p_416.75825798495254" d="M-5.0462475199451094e-15,27.47049202789737A27.47049202789737,27.47049202789737,0,1,1,5.0462475199451094e-15,-27.47049202789737A27.47049202789737,27.47049202789737,0,1,1,-5.0462475199451094e-15,27.47049202789737Z" fill="#adadad" stroke="none"/></g><g transform="translate(335.04645168831,188.94427401114166)" id="security"><path id="p_549.3172679509427" d="M-4.652410335263791e-15,25.326542251490967A25.326542251490967,25.326542251490967,0,1,1,4.652410335263791e-15,-25.326542251490967A25.326542251490967,25.326542251490967,0,1,1,-4.652410335263791e-15,25.326542251490967Z" fill="#adadad" stroke="none"/></g><g transform="translate(452.04841498058556,60.33699691796201)" id="content"><path id="p_537.7119541500385" d="M-4.652410335263791e-15,25.326542251490967A25.326542251490967,25.326542251490967,0,1,1,4.652410335263791e-15,-25.326542251490967A25.326542251490967,25.326542251490967,0,1,1,-4.652410335263791e-15,25.326542251490967Z" fill="#adadad" stroke="none"/></g><g transform="translate(456.85491420388354,180.56219120705447)" id="embeddings"><path id="p_662.743647662429" d="M-4.652410335263791e-15,25.326542251490967A25.326542251490967,25.326542251490967,0,1,1,4.652410335263791e-15,-25.326542251490967A25.326542251490967,25.326542251490967,0,1,1,-4.652410335263791e-15,25.326542251490967Z" fill="#adadad" stroke="none"/></g><g transform="translate(294.81563535147,81.09291375087642)" id="subprocessors"><path id="p_400.4789041222443" d="M-4.5135009943547965e-15,24.57035501989783A24.57035501989783,24.57035501989783,0,1,1,4.5135009943547965e-15,-24.57035501989783A24.57035501989783,24.57035501989783,0,1,1,-4.5135009943547965e-15,24.57035501989783Z" fill="#adadad" stroke="none"/></g><g transform="translate(294.4060283958921,159.65560755515767)" id="privacy"><path id="p_477.8517799016668" d="M-4.370178546056686e-15,23.790143950617026A23.790143950617026,23.790143950617026,0,1,1,4.370178546056686e-15,-23.790143950617026A23.790143950617026,23.790143950617026,0,1,1,-4.370178546056686e-15,23.790143950617026Z" fill="#adadad" stroke="none"/></g><g transform="translate(180.16585885788308,125.56029403039508)" id="content"><path id="p_328.7096154772429" d="M-4.221993583934788e-15,22.983462588964723A22.983462588964723,22.983462588964723,0,1,1,4.221993583934788e-15,-22.983462588964723A22.983462588964723,22.983462588964723,0,1,1,-4.221993583934788e-15,22.983462588964723Z" fill="#d9494a" stroke="none"/></g><g transform="translate(223.55181681054313,125.56029403039508)" id="genai"><path id="p_368.53668203639546" d="M-3.568235840898985e-15,19.424571195457226A19.424571195457226,19.424571195457226,0,1,1,3.568235840898985e-15,-19.424571195457226A19.424571195457226,19.424571195457226,0,1,1,-3.568235840898985e-15,19.424571195457226Z" fill="#d9494a" stroke="none"/></g><g transform="translate(205.01150248409468,157.179771350868)" id="expert"><path id="p_378.44303608676694" d="M-2.985400293326384e-15,16.251762251804283A16.251762251804283,16.251762251804283,0,1,1,2.985400293326384e-15,-16.251762251804283A16.251762251804283,16.251762251804283,0,1,1,-2.985400293326384e-15,16.251762251804283Z" fill="#d9494a" stroke="none"/></g><g transform="translate(205.01150248409468,93.94081670992216)" id="tool"><path id="p_315.2040814458211" d="M-2.985400293326384e-15,16.251762251804283A16.251762251804283,16.251762251804283,0,1,1,2.985400293326384e-15,-16.251762251804283A16.251762251804283,16.251762251804283,0,1,1,-2.985400293326384e-15,16.251762251804283Z" fill="#d9494a" stroke="none"/></g><g transform="translate(172.46307947606692,86.09176805062637)" id="work"><path id="p_274.80660977849755" d="M-2.985400293326384e-15,16.251762251804283A16.251762251804283,16.251762251804283,0,1,1,2.985400293326384e-15,-16.251762251804283A16.251762251804283,16.251762251804283,0,1,1,-2.985400293326384e-15,16.251762251804283Z" fill="#d9494a" stroke="none"/></g><g transform="translate(173.4617201848953,163.98745870663038)" id="right"><path id="p_352.4953870409709" d="M-2.763943597428437e-15,15.046208149445224A15.046208149445224,15.046208149445224,0,1,1,2.763943597428437e-15,-15.046208149445224A15.046208149445224,15.046208149445224,0,1,1,-2.763943597428437e-15,15.046208149445224Z" fill="#d9494a" stroke="none"/></g><g transform="translate(234.51483232608643,94.76587491425757)" id="member"><path id="p_341.5658847502929" d="M-2.2567504971773982e-15,12.285177509948914A12.285177509948914,12.285177509948914,0,1,1,2.2567504971773982e-15,-12.285177509948914A12.285177509948914,12.285177509948914,0,1,1,-2.2567504971773982e-15,12.285177509948914Z" fill="#d9494a" stroke="none"/></g><g transform="translate(234.51483232608643,156.35471314653262)" id="learn"><path id="p_403.154722982568" d="M-2.2567504971773982e-15,12.285177509948914A12.285177509948914,12.285177509948914,0,1,1,2.2567504971773982e-15,-12.285177509948914A12.285177509948914,12.285177509948914,0,1,1,-2.2567504971773982e-15,12.285177509948914Z" fill="#d9494a" stroke="none"/></g><g transform="translate(150.8787307679785,146.91626624938536)" id="answer"><path id="p_310.0801745273128" d="M-2.2567504971773982e-15,12.285177509948914A12.285177509948914,12.285177509948914,0,1,1,2.2567504971773982e-15,-12.285177509948914A12.285177509948914,12.285177509948914,0,1,1,-2.2567504971773982e-15,12.285177509948914Z" fill="#d9494a" stroke="none"/></g><g transform="translate(150.08554114276254,105.33684458846832)" id="ensure"><path id="p_267.7075632411798" d="M-2.2567504971773982e-15,12.285177509948914A12.285177509948914,12.285177509948914,0,1,1,2.2567504971773982e-15,-12.285177509948914A12.285177509948914,12.285177509948914,0,1,1,-2.2567504971773982e-15,12.285177509948914Z" fill="#d9494a" stroke="none"/></g></g><g id="labels"><g transform="translate(151.61995151528623,369.4242656315429)"><text text-anchor="middle" dominant-baseline="text-before-edge" transform="translate(0,-5.5)"><tspan x="0" y="0" dy="0" style="font-family: Arial, sans-serif; font-size: 10px; fill: black; font-weight: bold;">model</tspan></text></g><g transform="translate(278.8042057067714,369.4242656315429)"><text text-anchor="middle" dominant-baseline="text-before-edge" transform="translate(0,-5.5)"><tspan x="0" y="0" dy="0" style="font-family: Arial, sans-serif; font-size: 10px; fill: black; font-weight: bold;">risk</tspan></text></g><g transform="translate(222.53522990636017,460.5254897610713)"><text text-anchor="middle" dominant-baseline="text-before-edge" transform="translate(0,-5.5)"><tspan x="0" y="0" dy="0" style="font-family: Arial, sans-serif; font-size: 10px; fill: black; font-weight: bold;">safety</tspan></text></g><g transform="translate(221.8555518742532,291.20901236803536)"><text text-anchor="middle" dominant-baseline="text-before-edge" transform="translate(0,-5.5)"><tspan x="0" y="0" dy="0" style="font-family: Arial, sans-serif; font-size: 10px; fill: black; font-weight: bold;">research</tspan></text></g><g transform="translate(153.63523831912522,266.4296382931974)"><text text-anchor="middle" dominant-baseline="text-before-edge" transform="translate(0,-5.5)"><tspan x="0" y="0" dy="0" style="font-family: Arial, sans-serif; font-size: 10px; fill: black; font-weight: bold;">evaluation</tspan></text></g><g transform="translate(140.401195492385,471.82589723360775)"><text text-anchor="middle" dominant-baseline="text-before-edge" transform="translate(0,-5.5)"><tspan x="0" y="0" dy="0" style="font-family: Arial, sans-serif; font-size: 10px; fill: black; font-weight: bold;">approach</tspan></text></g><g transform="translate(291.866124458706,276.80082888407696)"><text text-anchor="middle" dominant-baseline="text-before-edge" transform="translate(0,-5.5)"><tspan x="0" y="0" dy="0" style="font-family: Arial, sans-serif; font-size: 10px; fill: black; font-weight: bold;">content</tspan></text></g><g transform="translate(303.1746421749528,458.5515549664398)"><text text-anchor="middle" dominant-baseline="text-before-edge" transform="translate(0,-5.5)"><tspan x="0" y="0" dy="0" style="font-family: Arial, sans-serif; font-size: 10px; fill: black; font-weight: bold;">responsible</tspan></text></g><g transform="translate(89.605295641876,289.99629201538545)"><text text-anchor="middle" dominant-baseline="text-before-edge" transform="translate(0,-5.5)"><tspan x="0" y="0" dy="0" style="font-family: Arial, sans-serif; font-size: 10px; fill: black; font-weight: bold;">framework</tspan></text></g><g transform="translate(205.99467308667465,222.68366341851805)"><text text-anchor="middle" dominant-baseline="text-before-edge" transform="translate(0,-5.5)"><tspan x="0" y="0" dy="0" style="font-family: Arial, sans-serif; font-size: 10px; fill: black; font-weight: bold;">security</tspan></text></g><g transform="translate(499.1660613508268,359.0169741244927)"><text text-anchor="middle" dominant-baseline="text-before-edge" transform="translate(0,-5.5)"><tspan x="0" y="0" dy="0" style="font-family: Arial, sans-serif; font-size: 10px; fill: black; font-weight: bold;">security</tspan></text></g><g transform="translate(623.2166211221431,359.0169741244927)"><text text-anchor="middle" dominant-baseline="text-before-edge" transform="translate(0,-5.5)"><tspan x="0" y="0" dy="0" style="font-family: Arial, sans-serif; font-size: 10px; fill: black; font-weight: bold;">data</tspan></text></g><g transform="translate(565.0363411531985,442.0904466374796)"><text text-anchor="middle" dominant-baseline="text-before-edge" transform="translate(0,-5.5)"><tspan x="0" y="0" dy="0" style="font-family: Arial, sans-serif; font-size: 10px; fill: black; font-weight: bold;">compliance</tspan></text></g><g transform="translate(564.9125138224401,280.1475308940965)"><text text-anchor="middle" dominant-baseline="text-before-edge" transform="translate(0,-5.5)"><tspan x="0" y="0" dy="0" style="font-family: Arial, sans-serif; font-size: 10px; fill: black; font-weight: bold;">access</tspan></text></g><g transform="translate(494.6722001705226,260.10494027122496)"><text text-anchor="middle" dominant-baseline="text-before-edge" transform="translate(0,-5.5)"><tspan x="0" y="0" dy="0" style="font-family: Arial, sans-serif; font-size: 10px; fill: black; font-weight: bold;">user</tspan></text></g><g transform="translate(490.7109480873617,457.11118249312057)"><text text-anchor="middle" dominant-baseline="text-before-edge" transform="translate(0,-5.5)"><tspan x="0" y="0" dy="0" style="font-family: Arial, sans-serif; font-size: 10px; fill: black; font-weight: bold;">management</tspan></text></g><g transform="translate(636.0130235668759,266.0341223238711)"><text text-anchor="middle" dominant-baseline="text-before-edge" transform="translate(0,-5.5)"><tspan x="0" y="0" dy="0" style="font-family: Arial, sans-serif; font-size: 10px; fill: black; font-weight: bold;">policy</tspan></text></g><g transform="translate(639.7900846066728,450.82680763776216)"><text text-anchor="middle" dominant-baseline="text-before-edge" transform="translate(0,-5.5)"><tspan x="0" y="0" dy="0" style="font-family: Arial, sans-serif; font-size: 10px; fill: black; font-weight: bold;">control</tspan></text></g><g transform="translate(433.6017574677779,287.89533847107214)"><text text-anchor="middle" dominant-baseline="text-before-edge" transform="translate(0,-5.5)"><tspan x="0" y="0" dy="0" style="font-family: Arial, sans-serif; font-size: 10px; fill: black; font-weight: bold;">key</tspan></text></g><g transform="translate(433.2652509575095,427.3121506939717)"><text text-anchor="middle" dominant-baseline="text-before-edge" transform="translate(0,-5.5)"><tspan x="0" y="0" dy="0" style="font-family: Arial, sans-serif; font-size: 10px; fill: black; font-weight: bold;">enterprise</tspan></text></g><g transform="translate(346.3907485278331,618.378793158388)"><text text-anchor="middle" dominant-baseline="text-before-edge" transform="translate(0,-5.5)"><tspan x="0" y="0" dy="0" style="font-family: Arial, sans-serif; font-size: 10px; fill: black; font-weight: bold;">companion</tspan></text></g><g transform="translate(434.4097059135071,618.378793158388)"><text text-anchor="middle" dominant-baseline="text-before-edge" transform="translate(0,-5.5)"><tspan x="0" y="0" dy="0" style="font-family: Arial, sans-serif; font-size: 10px; fill: black; font-weight: bold;">thirdparty</tspan></text></g><g transform="translate(406.94877789411123,681.4855999232273)"><text text-anchor="middle" dominant-baseline="text-before-edge" transform="translate(0,-5.5)"><tspan x="0" y="0" dy="0" style="font-family: Arial, sans-serif; font-size: 10px; fill: black; font-weight: bold;">feature</tspan></text></g><g transform="translate(406.94877789411123,555.2719863935488)"><text text-anchor="middle" dominant-baseline="text-before-edge" transform="translate(0,-5.5)"><tspan x="0" y="0" dy="0" style="font-family: Arial, sans-serif; font-size: 10px; fill: black; font-weight: bold;">customer</tspan></text></g><g transform="translate(343.5479571000458,531.5279822674896)"><text text-anchor="middle" dominant-baseline="text-before-edge" transform="translate(0,-5.5)"><tspan x="0" y="0" dy="0" style="font-family: Arial, sans-serif; font-size: 10px; fill: black; font-weight: bold;">meeting</tspan></text></g><g transform="translate(343.9525477049933,704.6663474110351)"><text text-anchor="middle" dominant-baseline="text-before-edge" transform="translate(0,-5.5)"><tspan x="0" y="0" dy="0" style="font-family: Arial, sans-serif; font-size: 10px; fill: black; font-weight: bold;">security</tspan></text></g><g transform="translate(472.98100565648605,563.4774266894871)"><text text-anchor="middle" dominant-baseline="text-before-edge" transform="translate(0,-5.5)"><tspan x="0" y="0" dy="0" style="font-family: Arial, sans-serif; font-size: 10px; fill: black; font-weight: bold;">data</tspan></text></g><g transform="translate(472.34366776751244,672.9975639474912)"><text text-anchor="middle" dominant-baseline="text-before-edge" transform="translate(0,-5.5)"><tspan x="0" y="0" dy="0" style="font-family: Arial, sans-serif; font-size: 10px; fill: black; font-weight: bold;">user</tspan></text></g><g transform="translate(287.3603814362487,677.1199458961624)"><text text-anchor="middle" dominant-baseline="text-before-edge" transform="translate(0,-5.5)"><tspan x="0" y="0" dy="0" style="font-family: Arial, sans-serif; font-size: 10px; fill: black; font-weight: bold;">model</tspan></text></g><g transform="translate(287.6382796400885,560.2769379128354)"><text text-anchor="middle" dominant-baseline="text-before-edge" transform="translate(0,-5.5)"><tspan x="0" y="0" dy="0" style="font-family: Arial, sans-serif; font-size: 10px; fill: black; font-weight: bold;">content</tspan></text></g><g transform="translate(350.3013251928625,121.34148193191625)"><text text-anchor="middle" dominant-baseline="text-before-edge" transform="translate(0,-5.5)"><tspan x="0" y="0" dy="0" style="font-family: Arial, sans-serif; font-size: 10px; fill: black; font-weight: bold;">data</tspan></text></g><g transform="translate(432.14283078156615,121.34148193191625)"><text text-anchor="middle" dominant-baseline="text-before-edge" transform="translate(0,-5.5)"><tspan x="0" y="0" dy="0" style="font-family: Arial, sans-serif; font-size: 10px; fill: black; font-weight: bold;">customer</tspan></text></g><g transform="translate(395.9982652304864,185.44469856570396)"><text text-anchor="middle" dominant-baseline="text-before-edge" transform="translate(0,-5.5)"><tspan x="0" y="0" dy="0" style="font-family: Arial, sans-serif; font-size: 10px; fill: black; font-weight: bold;">model</tspan></text></g><g transform="translate(395.7063089179323,62.82204516748562)"><text text-anchor="middle" dominant-baseline="text-before-edge" transform="translate(0,-5.5)"><tspan x="0" y="0" dy="0" style="font-family: Arial, sans-serif; font-size: 10px; fill: black; font-weight: bold;">workspace</tspan></text></g><g transform="translate(338.3935100665982,50.89425589045695)"><text text-anchor="middle" dominant-baseline="text-before-edge" transform="translate(0,-5.5)"><tspan x="0" y="0" dy="0" style="font-family: Arial, sans-serif; font-size: 10px; fill: black; font-weight: bold;">user</tspan></text></g><g transform="translate(335.04645168831,188.94427401114166)"><text text-anchor="middle" dominant-baseline="text-before-edge" transform="translate(0,-5.5)"><tspan x="0" y="0" dy="0" style="font-family: Arial, sans-serif; font-size: 10px; fill: black; font-weight: bold;">security</tspan></text></g><g transform="translate(452.04841498058556,60.33699691796201)"><text text-anchor="middle" dominant-baseline="text-before-edge" transform="translate(0,-5.5)"><tspan x="0" y="0" dy="0" style="font-family: Arial, sans-serif; font-size: 10px; fill: black; font-weight: bold;">content</tspan></text></g><g transform="translate(456.85491420388354,180.56219120705447)"><text text-anchor="middle" dominant-baseline="text-before-edge" transform="translate(0,-5.5)"><tspan x="0" y="0" dy="0" style="font-family: Arial, sans-serif; font-size: 10px; fill: black; font-weight: bold;">embeddings</tspan></text></g><g transform="translate(294.81563535147,81.09291375087642)"><text text-anchor="middle" dominant-baseline="text-before-edge" transform="translate(0,-5.5)"><tspan x="0" y="0" dy="0" style="font-family: Arial, sans-serif; font-size: 10px; fill: black; font-weight: bold;">subprocessors</tspan></text></g><g transform="translate(294.4060283958921,159.65560755515767)"><text text-anchor="middle" dominant-baseline="text-before-edge" transform="translate(0,-5.5)"><tspan x="0" y="0" dy="0" style="font-family: Arial, sans-serif; font-size: 10px; fill: black; font-weight: bold;">privacy</tspan></text></g><g transform="translate(180.16585885788308,125.56029403039508)"><text text-anchor="middle" dominant-baseline="text-before-edge" transform="translate(0,-5.5)"><tspan x="0" y="0" dy="0" style="font-family: Arial, sans-serif; font-size: 10px; fill: black; font-weight: bold;">content</tspan></text></g><g transform="translate(223.55181681054313,125.56029403039508)"><text text-anchor="middle" dominant-baseline="text-before-edge" transform="translate(0,-5.5)"><tspan x="0" y="0" dy="0" style="font-family: Arial, sans-serif; font-size: 10px; fill: black; font-weight: bold;">genai</tspan></text></g><g transform="translate(205.01150248409468,157.179771350868)"><text text-anchor="middle" dominant-baseline="text-before-edge" transform="translate(0,-5.5)"><tspan x="0" y="0" dy="0" style="font-family: Arial, sans-serif; font-size: 10px; fill: black; font-weight: bold;">expert</tspan></text></g><g transform="translate(205.01150248409468,93.94081670992216)"><text text-anchor="middle" dominant-baseline="text-before-edge" transform="translate(0,-5.5)"><tspan x="0" y="0" dy="0" style="font-family: Arial, sans-serif; font-size: 10px; fill: black; font-weight: bold;">tool</tspan></text></g><g transform="translate(172.46307947606692,86.09176805062637)"><text text-anchor="middle" dominant-baseline="text-before-edge" transform="translate(0,-5.5)"><tspan x="0" y="0" dy="0" style="font-family: Arial, sans-serif; font-size: 10px; fill: black; font-weight: bold;">work</tspan></text></g><g transform="translate(173.4617201848953,163.98745870663038)"><text text-anchor="middle" dominant-baseline="text-before-edge" transform="translate(0,-5.5)"><tspan x="0" y="0" dy="0" style="font-family: Arial, sans-serif; font-size: 10px; fill: black; font-weight: bold;">right</tspan></text></g><g transform="translate(234.51483232608643,94.76587491425757)"><text text-anchor="middle" dominant-baseline="text-before-edge" transform="translate(0,-5.5)"><tspan x="0" y="0" dy="0" style="font-family: Arial, sans-serif; font-size: 10px; fill: black; font-weight: bold;">member</tspan></text></g><g transform="translate(234.51483232608643,156.35471314653262)"><text text-anchor="middle" dominant-baseline="text-before-edge" transform="translate(0,-5.5)"><tspan x="0" y="0" dy="0" style="font-family: Arial, sans-serif; font-size: 10px; fill: black; font-weight: bold;">learn</tspan></text></g><g transform="translate(150.8787307679785,146.91626624938536)"><text text-anchor="middle" dominant-baseline="text-before-edge" transform="translate(0,-5.5)"><tspan x="0" y="0" dy="0" style="font-family: Arial, sans-serif; font-size: 10px; fill: black; font-weight: bold;">answer</tspan></text></g><g transform="translate(150.08554114276254,105.33684458846832)"><text text-anchor="middle" dominant-baseline="text-before-edge" transform="translate(0,-5.5)"><tspan x="0" y="0" dy="0" style="font-family: Arial, sans-serif; font-size: 10px; fill: black; font-weight: bold;">ensure</tspan></text></g></g></g></svg>